<svg width="14" height="8" viewBox="0 0 14 8" xmlns="http://www.w3.org/2000/svg">
    <path fill-rule="evenodd" clip-rule="evenodd" d="M0 1.0346C0.00415039 1.0951 0.00364971 1.1105 0.0139503 1.17041C0.0372009 1.30511 0.088253 1.43467 0.163257 1.54897C0.201159 1.60678 0.24526 1.65723 0.292313 1.70763L6.29257 7.70789C6.33692 7.74929 6.34702 7.76084 6.39547 7.79759C6.44988 7.83884 6.50853 7.87449 6.57023 7.90385C6.83979 8.03205 7.15966 8.03205 7.42922 7.90385C7.49092 7.87449 7.54957 7.83884 7.60398 7.79759C7.65238 7.76084 7.66253 7.74929 7.70683 7.70789L13.7071 1.70763C13.7485 1.66328 13.7601 1.65313 13.7968 1.60473C13.8932 1.47762 13.9583 1.32761 13.9855 1.17041C14.0048 1.05815 14.0048 0.942797 13.9855 0.830543C13.97 0.740789 13.9422 0.653235 13.9031 0.570982C13.7545 0.258568 13.4464 0.0410585 13.1023 0.0056572C12.9663 -0.00829315 12.8277 0.0059576 12.6974 0.0473094C12.5889 0.0817609 12.4864 0.134813 12.3957 0.203616C12.3473 0.240367 12.3372 0.251918 12.2928 0.29332L6.9997 5.58645L1.70657 0.29332L1.65667 0.246718C1.60967 0.208467 1.59872 0.197566 1.54792 0.164264C1.45271 0.101811 1.34686 0.0558095 1.23625 0.0288582C1.14775 0.00730705 1.05635 -0.00209332 0.965342 0.00100708C0.619576 0.0128074 0.297313 0.208817 0.127755 0.510329C0.0719528 0.609583 0.0333014 0.718338 0.0139503 0.830543C0.00364971 0.890445 0.00415039 0.905846 0 0.966349C0 0.9891 0 1.01185 0 1.0346Z"/>
</svg>
