<svg width="40" height="40" viewBox="0 0 40 40" fill="none" xmlns="http://www.w3.org/2000/svg">
<circle cx="20" cy="20" r="20" fill="#EAE6F9"/>
<path fill-rule="evenodd" clip-rule="evenodd" d="M18.8571 11C18.4243 11 18.0285 11.2446 17.8349 11.6318L17.008 13.2857H13.1429C12.5117 13.2857 12 13.7974 12 14.4286C12 15.0597 12.5117 15.5714 13.1429 15.5714V27C13.1429 28.2624 14.1662 29.2857 15.4286 29.2857H24.5714C25.8338 29.2857 26.8571 28.2624 26.8571 27V15.5714C27.4883 15.5714 28 15.0597 28 14.4286C28 13.7974 27.4883 13.2857 26.8571 13.2857H22.992L22.165 11.6318C21.9714 11.2446 21.5758 11 21.1429 11H18.8571ZM16.5714 17.8571C16.5714 17.226 17.0831 16.7143 17.7143 16.7143C18.3455 16.7143 18.8571 17.226 18.8571 17.8571V24.7143C18.8571 25.3455 18.3455 25.8571 17.7143 25.8571C17.0831 25.8571 16.5714 25.3455 16.5714 24.7143V17.8571ZM22.2857 16.7143C21.6545 16.7143 21.1429 17.226 21.1429 17.8571V24.7143C21.1429 25.3455 21.6545 25.8571 22.2857 25.8571C22.9169 25.8571 23.4286 25.3455 23.4286 24.7143V17.8571C23.4286 17.226 22.9169 16.7143 22.2857 16.7143Z" fill="#544191"/>
</svg>
