<svg width="17" height="12" viewBox="0 0 17 12" fill="none" xmlns="http://www.w3.org/2000/svg">
<path d="M8.179 7.71428C9.1258 7.71428 9.89329 6.94679 9.89329 5.99999C9.89329 5.05322 9.1258 4.28571 8.179 4.28571C7.23223 4.28571 6.46472 5.05322 6.46472 5.99999C6.46472 6.94679 7.23223 7.71428 8.179 7.71428Z" fill="#A0A9B3"/>
<path fill-rule="evenodd" clip-rule="evenodd" d="M0 6C1.09222 2.52249 4.34105 0 8.17904 0C12.017 0 15.2658 2.52247 16.3581 5.99997C15.2658 9.47752 12.017 12 8.17902 12C4.34105 12 1.09224 9.47752 0 6ZM11.6076 6C11.6076 7.89352 10.0726 9.42857 8.17906 9.42857C6.28552 9.42857 4.7505 7.89352 4.7505 6C4.7505 4.10645 6.28552 2.57143 8.17906 2.57143C10.0726 2.57143 11.6076 4.10645 11.6076 6Z" fill="#A0A9B3"/>
</svg>
