<svg width="40" height="40" viewBox="0 0 50 50" fill="none" xmlns="http://www.w3.org/2000/svg">
<g clip-path="url(#clip0_15_229)">
<rect width="50" height="50" rx="8" fill="#9582D9"/>
<path d="M16.1764 34.4V17.2672H19.8092V34.4H16.1764ZM29.7384 17.2672C31.9493 17.2672 33.5626 17.7437 34.5782 18.6969C35.5939 19.6422 36.1017 20.9469 36.1017 22.6109C36.1017 23.3609 35.9884 24.0797 35.7618 24.7672C35.5353 25.4469 35.1642 26.0523 34.6485 26.5836C34.1407 27.1148 33.461 27.5367 32.6095 27.8492C31.7579 28.1539 30.7071 28.3062 29.4571 28.3062H27.8985V34.4H24.2657V17.2672H29.7384ZM29.5509 20.2437H27.8985V25.3297H29.0939C29.7735 25.3297 30.3634 25.2398 30.8634 25.0602C31.3634 24.8805 31.7501 24.5992 32.0235 24.2164C32.297 23.8336 32.4337 23.3414 32.4337 22.7398C32.4337 21.8961 32.1993 21.2711 31.7306 20.8648C31.2618 20.4508 30.5353 20.2437 29.5509 20.2437Z" fill="white"/>
</g>
<defs>
<clipPath id="clip0_15_229">
<rect width="50" height="50" fill="white"/>
</clipPath>
</defs>
</svg>
